<svg width="50" height="64" viewBox="0 0 50 64" fill="none" xmlns="http://www.w3.org/2000/svg">
<path d="M11.7734 63.9319H16.5135C17.1309 63.9319 17.6158 63.4468 17.6158 62.8296V52.0484C17.6158 48.0137 20.879 44.7507 24.9135 44.7507C26.8537 44.7507 28.6837 45.5223 30.0727 46.8892C31.4396 48.2782 32.2112 50.1082 32.2112 52.0484V62.8296C32.2112 63.4468 32.6963 63.9319 33.3136 63.9319H38.0538C44.5357 63.9319 49.827 58.6405 49.827 52.1586V22.6371C49.827 22.3286 49.6947 22.0199 49.4743 21.8214L25.6632 0.281176C25.2443 -0.0937252 24.5829 -0.0937252 24.164 0.281176L0.352705 21.8214C0.132279 22.0199 0 22.3285 0 22.6371V52.1586C0 58.6405 5.29143 63.9319 11.7734 63.9319Z" fill="#FE753F"/>
</svg>
